<svg height="512pt" viewBox="0 0 512 512" width="512pt" xmlns="http://www.w3.org/2000/svg"><path d="m301 392v30h120v-30zm0 60v60h120v-60zm-30-270v90h-180v60h-91v180h271v-150h180v150h61v-330zm-180 270h-30v-60h30zm90-60h-30v-60h30zm60 0h-30v-60h30zm120-90h-30v-60h30zm60 0h-30v-60h30zm-120 90v30h120v-30zm0 0"/><path d="m221.5 182h-84.300781l-9.300781 60h105zm0 0"/><path d="m401.5 92h-84.300781l-9.300781 60h105zm0 0"/><path d="m181 152h-30v-15c0-57.890625 47.109375-105 105-105h180c8.277344 0 15-6.722656 15-15v-17h30v17c0 24.8125-20.1875 45-45 45h-180c-41.351562 0-75 33.648438-75 75zm0 0"/><path d="m241 152h-30v-15c0-24.8125 20.1875-45 45-45h15v30h-15c-8.277344 0-15 6.722656-15 15zm0 0"/></svg>